<?xml version="1.0" encoding="UTF-8"?>
<svg id="_レイヤー_2" data-name="レイヤー 2" xmlns="http://www.w3.org/2000/svg" viewBox="0 0 168.3 77.44">
  <defs>
    <style>
      .cls-1 {
        fill: #da7c8b;
      }

      .cls-2 {
        fill: #1a1a1d;
      }

      .cls-3 {
        stroke: #1a1a1d;
      }

      .cls-3, .cls-4 {
        fill: none;
        stroke-linecap: round;
      }

      .cls-3, .cls-4, .cls-5 {
        stroke-miterlimit: 10;
      }

      .cls-4 {
        stroke: #a13224;
      }

      .cls-5 {
        fill: #fff;
        stroke: #fff5d1;
      }
    </style>
  </defs>
  <g id="_レイヤー_2-2" data-name=" レイヤー 2">
    <g>
      <path class="cls-5" d="m144.73,43.44c-9.78-3.51-19.41-9.17-27.58-16.32-7.52-6.58-14.17-20.23-26.04-24.12-12.2-3.99-23.43-3.14-32.46,2.1-8.62,5-15.68,13.96-27.16,22.49-10.1,5.87-11.58,10.38-30.99,11.17v38.17h167.3v-26.14c-3.59-1.01-10.79-2-23.07-7.35Z"/>
      <path class="cls-1" d="m78.38,10.7c5.03.4,10.44,6.06,10,12.07-.44,6.01-1.28,7.33-2.87,8.24-1.58.91-16.69-.29-18.57-1.92-1.87-1.63-1.53-6.2-.79-9.36,1.38-5.87,7.19-9.43,12.23-9.03Z"/>
      <g>
        <path class="cls-3" d="m66.15,19.73c1.38-5.87,7.19-9.43,12.23-9.03,5.03.4,10.44,6.06,10,12.07-.44,6.01-1.28,7.33-2.87,8.24-1.58.91-16.69-.29-18.57-1.92-1.87-1.63-1.53-6.2-.79-9.36Z"/>
        <path class="cls-4" d="m68.18,20.67c2.9,3.86,6.67,4.67,6.67,4.67,0,0,8.08-.41,10.94-2.98"/>
      </g>
      <ellipse class="cls-2" cx="61.2" cy="15.75" rx="3.22" ry="1.55" transform="translate(-1.8 10.76) rotate(-9.9)"/>
      <ellipse class="cls-2" cx="97.98" cy="19.2" rx="1.61" ry="3.69" transform="translate(54.48 109.08) rotate(-75.26)"/>
    </g>
  </g>
</svg>