<?xml version="1.0" encoding="UTF-8"?>
<svg id="_レイヤー_2" data-name="レイヤー 2" xmlns="http://www.w3.org/2000/svg" viewBox="0 0 204.1 147.48">
  <defs>
    <style>
      .cls-1 {
        letter-spacing: -.05em;
      }

      .cls-2 {
        letter-spacing: -.04em;
      }

      .cls-3, .cls-4 {
        stroke-miterlimit: 10;
      }

      .cls-3, .cls-4, .cls-5 {
        fill: none;
        stroke-linecap: round;
      }

      .cls-3, .cls-5 {
        stroke: #1a1a1d;
        stroke-width: 2.22px;
      }

      .cls-6 {
        letter-spacing: -.07em;
      }

      .cls-7, .cls-8 {
        fill: #693e21;
      }

      .cls-9 {
        fill: #aeadb8;
      }

      .cls-10 {
        fill: #b38769;
      }

      .cls-11 {
        fill: #d1c2b9;
      }

      .cls-12 {
        fill: #da7c8b;
      }

      .cls-13 {
        fill: #e0e0e2;
      }

      .cls-14 {
        fill: #454750;
      }

      .cls-15 {
        fill: #1a1a1d;
      }

      .cls-8 {
        font-family: TsukuARdGothic-Bold-83pv-RKSJ-H, 'Tsukushi A Round Gothic';
        font-size: 38.89px;
        font-weight: 700;
      }

      .cls-4 {
        stroke: #a13224;
        stroke-width: 1.67px;
      }

      .cls-16 {
        letter-spacing: -.01em;
      }

      .cls-17 {
        letter-spacing: -.03em;
      }

      .cls-18 {
        letter-spacing: 0em;
      }

      .cls-5 {
        stroke-linejoin: round;
      }
    </style>
  </defs>
  <g id="_レイヤー_2-2" data-name="レイヤー 2">
    <g>
      <ellipse class="cls-10" cx="100.41" cy="82.69" rx="92.04" ry="31.24"/>
      <text class="cls-8" transform="translate(0 136.62)"><tspan x="0" y="0">C</tspan><tspan class="cls-16" x="29.91" y="0">a</tspan><tspan class="cls-2" x="49.66" y="0">m</tspan><tspan class="cls-18" x="80.04" y="0">p</tspan><tspan x="103.8" y="0">a</tspan><tspan class="cls-17" x="124.1" y="0">n</tspan><tspan class="cls-1" x="145.38" y="0">e</tspan><tspan x="164.63" y="0">l</tspan><tspan class="cls-6" x="175.55" y="0">l</tspan><tspan x="183.8" y="0">a</tspan></text>
      <g>
        <g>
          <path class="cls-14" d="m144.16,88.64c17.08-8.64,42.01-6.07,38.49-.78-3.52,5.3-37.81,12.08-42.76,7.57,1.78-1.95,3.17-4.24,3.88-6.89l.38.1Z"/>
          <path class="cls-11" d="m144.31,84.37c0,1.48-.18,2.87-.54,4.17-.71,2.66-2.1,4.94-3.88,6.89-7.5,8.23-21.92,10.61-21.92,10.61,0,0-32.73,6.84-54.63-9.01-9.67-7-13.5-15.13-14.48-22.69h0c9.06,14.05,82.57,19.25,94.88,4.9h.07c.32,1.77.5,3.49.5,5.13Z"/>
          <path class="cls-9" d="m143.81,79.22h-.07c-12.31,14.36-85.82,9.16-94.88-4.89h0c-1.24-9.58,2.07-18.26,3.88-22.64,1.2-2.92,2.38-9.15,4.7-16.31l.65.21c3.56,1.81,19.31,3.67,23.16,3.09l.32-.14c.2.46.47.85.81,1.14,1.87,1.63,16.98,2.83,18.57,1.92,9.08,2.51,24.37,3.69,27.8,1.6l.54-.24c5.37,12.22,12.57,25.35,14.52,36.25Z"/>
          <path class="cls-13" d="m129.29,42.97l-.54.24c-3.43,2.09-18.72.9-27.8-1.6,1.39-.79,2.21-1.91,2.68-6.22h.1c4.5-1.82,17.88-1.73,21.55-.19l.75-.28c.94,2.62,2.05,5.32,3.26,8.06Z"/>
          <path class="cls-14" d="m126.03,34.91l-.75.28c-3.67-1.54-17.05-1.63-21.55.2h-.1c.07-.62.13-1.28.18-2.03.44-6-4.97-11.67-10-12.07-5.04-.4-10.84,3.16-12.22,9.03-.16.69-.31,1.45-.41,2.24h-.09c.05-1.36-12.25-10.19-19.34-6.68l-.61-.02c4.43-9.48,11.45-18.81,23.43-23.21,14.5-5.33,36.59,3.42,38.68,21.39.39,3.37,1.41,7.03,2.79,10.87Z"/>
          <path class="cls-12" d="m93.81,21.3c5.04.4,10.44,6.06,10,12.07-.05.74-.11,1.41-.18,2.02-.47,4.31-1.29,5.43-2.68,6.22-1.59.91-16.7-.29-18.57-1.92-.34-.29-.61-.68-.81-1.14-.68-1.53-.68-3.84-.39-5.98.1-.79.25-1.55.41-2.24,1.38-5.87,7.18-9.43,12.22-9.03Z"/>
          <path class="cls-13" d="m81.08,32.55h.09c-.29,2.16-.29,4.46.39,5.99l-.32.14c-3.85.58-19.6-1.28-23.16-3.09l-.65-.21c1-3.07,2.2-6.3,3.7-9.52l.61.02c7.09-3.52,19.39,5.31,19.34,6.66Z"/>
        </g>
        <g>
          <path class="cls-3" d="m61.75,25.89c7.09-3.52,19.39,5.31,19.34,6.66,0,.02,0,.03,0,.05"/>
          <path class="cls-3" d="m103.73,35.39c4.5-1.83,17.88-1.74,21.55-.2"/>
          <path class="cls-3" d="m48.86,74.33c9.06,14.05,82.57,19.25,94.88,4.9"/>
          <path class="cls-3" d="m61.13,25.87c4.43-9.48,11.45-18.81,23.43-23.21,14.5-5.33,36.59,3.42,38.68,21.39.39,3.37,1.41,7.03,2.79,10.87.94,2.62,2.05,5.32,3.26,8.06,5.37,12.22,12.57,25.35,14.52,36.25.32,1.78.5,3.5.5,5.15,0,1.48-.18,2.87-.54,4.17-.71,2.66-2.1,4.94-3.88,6.89-7.5,8.23-21.92,10.61-21.92,10.61,0,0-32.73,6.84-54.63-9.01-9.67-7-13.5-15.13-14.48-22.69-1.24-9.58,2.07-18.26,3.88-22.64,1.2-2.92,2.38-9.15,4.7-16.31,1-3.07,2.2-6.3,3.7-9.52Z"/>
          <path class="cls-3" d="m81.18,32.57c.1-.79.25-1.55.41-2.24,1.38-5.87,7.18-9.43,12.22-9.03,5.04.4,10.44,6.06,10,12.07-.05.74-.11,1.41-.18,2.02-.47,4.31-1.29,5.43-2.68,6.22-1.59.91-16.7-.29-18.57-1.92-.34-.29-.61-.68-.81-1.14-.68-1.53-.68-3.84-.39-5.98Z"/>
          <path class="cls-3" d="m139.9,95.43c4.95,4.51,39.24-2.27,42.76-7.57,3.52-5.3-21.41-7.86-38.49.78"/>
          <path class="cls-4" d="m83.61,31.27c2.9,3.86,9.04,5.5,9.04,5.5,0,0,5.71-1.24,8.57-3.81"/>
          <path class="cls-5" d="m100.95,41.61c9.08,2.51,24.37,3.69,27.8,1.6"/>
          <path class="cls-5" d="m58.09,35.6c3.56,1.81,19.31,3.67,23.16,3.09"/>
        </g>
      </g>
      <ellipse class="cls-15" cx="78.56" cy="25.07" rx="2.46" ry="1.55"/>
      <ellipse class="cls-15" cx="107.07" cy="28.48" rx="1.55" ry="2.46" transform="translate(63.86 130.5) rotate(-81.94)"/>
      <g>
        <path class="cls-7" d="m190.96,111.92c2.33,1.06,5.83-.42,8.19-3.59,2.37-3.17,2.78-6.95,1.1-8.88l-9.29,12.47Z"/>
        <path class="cls-7" d="m190.88,102.16c-2.59,3.48-2.84,7.68-.56,9.38l9.39-12.6c-2.28-1.7-6.24-.26-8.83,3.22Z"/>
      </g>
      <polygon class="cls-7" points="188.76 112.25 189.42 113.61 190.92 113.82 189.84 114.88 190.09 116.36 188.76 115.66 187.42 116.36 187.68 114.88 186.6 113.82 188.09 113.61 188.76 112.25"/>
    </g>
  </g>
</svg>