<?xml version="1.0" encoding="UTF-8"?>
<svg id="_レイヤー_2" data-name="レイヤー 2" xmlns="http://www.w3.org/2000/svg" viewBox="0 0 714 126">
  <defs>
    <style>
      .cls-1 {
        fill: #8ab3db;
      }
    </style>
  </defs>
  <g id="_レイヤー_1-2" data-name="レイヤー 1">
    <path class="cls-1" d="m0,0v37.14c2.19-7.56,7.46-16.27,18.28-17.04,18.26-1.31,7.56,68.64,30.24,67.17,22.68-1.47,13.46-48.21,45.36-57.69,31.9-9.48,10.51,32.19,37.8,32.19s9.22-32.19,31.9-32.19-3.13,69.62,27.11,68.31c30.24-1.31,13.83-77.79,47.02-77.79s27.11,53.6,18.07,77.79c-9.04,24.19,8.85,28.11,18.07,28.11s18.07-13.24,15.12-38.73c-2.95-25.49-15.12-42.98,0-42.98s9.22,17.49,33.37,17.49,13.46-32.19,33.19-32.19,16.6,28.11,37.8,21.41c21.21-6.7,24.16-21.41,43.89-21.41s5.9,14.71,30.24,14.71,21.21-14.71,49.97-14.71,33.37,22.72,34.85,40.2c1.48,17.49-12.91,35.63,0,46.41,13.57,11.34,22.5-7.68,25.63-18.3,3.13-10.62,0-3.92,0-36.12s19.73-32.19,34.85-32.19-7.74,24.19,10.51,32.19c18.25,8.01,10.51-32.19,28.77-32.19s4.61,21.41,27.29,21.41c18.14,0,30.67-14.27,34.67-21.41V0H0Z"/>
  </g>
</svg>